<svg width="1968" height="512" viewBox="0 0 1968 512" fill="none" xmlns="http://www.w3.org/2000/svg">
<path d="M120 312.951L309.378 173.598V273.646L120 413V312.951Z" fill="#1D1D1B" fill-opacity="0.5"/>
<path d="M120 127.146H484.463V201.468H120V127.146Z" fill="#1D1D1B"/>
<path d="M187.891 191.463L484.464 391.561V291.512L305.805 170.024L187.891 191.463Z" fill="#1D1D1B"/>
<path d="M765.515 349.998C739.102 375.725 707.201 388.588 669.811 388.588C632.422 388.588 600.52 375.725 574.108 349.998C547.695 323.928 534.488 292.027 534.488 254.294C534.488 216.904 547.695 185.175 574.108 159.105C600.52 133.035 632.422 120 669.811 120C707.201 120 739.102 133.035 765.515 159.105C791.928 185.175 805.135 216.904 805.135 254.294C805.135 292.027 791.928 323.928 765.515 349.998ZM669.811 322.727C687.992 322.727 703.085 316.381 715.091 303.69C727.44 290.655 733.614 274.189 733.614 254.294C733.614 234.399 727.44 218.105 715.091 205.413C703.085 192.378 687.992 185.861 669.811 185.861C651.288 185.861 635.852 192.378 623.503 205.413C611.497 218.105 605.494 234.399 605.494 254.294C605.494 274.189 611.497 290.655 623.503 303.69C635.852 316.381 651.288 322.727 669.811 322.727Z" fill="#1D1D1B"/>
<path d="M1174.98 382.928V245.547C1174.98 204.727 1161.6 184.317 1134.85 184.317C1119.41 184.317 1107.06 190.149 1097.8 201.811C1088.88 213.474 1084.08 230.797 1083.39 253.78V382.928H1012.9V245.547C1012.9 204.727 999.525 184.317 972.769 184.317C956.99 184.317 944.469 190.492 935.208 202.84C925.946 215.189 921.315 233.37 921.315 257.381V382.928H850.824V125.66H921.315V154.989C937.437 131.663 960.249 120 989.749 120C1025.77 120 1052.35 135.779 1069.5 167.337C1077.05 152.587 1088.37 141.096 1103.46 132.863C1118.55 124.288 1133.82 120 1149.26 120C1179.78 120 1203.45 130.119 1220.26 150.358C1237.07 170.596 1245.47 198.381 1245.47 233.713V382.928H1174.98Z" fill="#1D1D1B"/>
<path d="M1518.99 349.998C1492.58 375.725 1460.68 388.588 1423.29 388.588C1385.9 388.588 1353.99 375.725 1327.58 349.998C1301.17 323.928 1287.96 292.027 1287.96 254.294C1287.96 216.904 1301.17 185.175 1327.58 159.105C1353.99 133.035 1385.9 120 1423.29 120C1460.68 120 1492.58 133.035 1518.99 159.105C1545.4 185.175 1558.61 216.904 1558.61 254.294C1558.61 292.027 1545.4 323.928 1518.99 349.998ZM1423.29 322.727C1441.47 322.727 1456.56 316.381 1468.56 303.69C1480.91 290.655 1487.09 274.189 1487.09 254.294C1487.09 234.399 1480.91 218.105 1468.56 205.413C1456.56 192.378 1441.47 185.861 1423.29 185.861C1404.76 185.861 1389.33 192.378 1376.98 205.413C1364.97 218.105 1358.97 234.399 1358.97 254.294C1358.97 274.189 1364.97 290.655 1376.98 303.69C1389.33 316.381 1404.76 322.727 1423.29 322.727Z" fill="#1D1D1B"/>
<path d="M1604.3 382.928V125.66H1674.79V154.989C1690.57 131.663 1715.1 120 1748.37 120C1779.24 120 1803.42 130.291 1820.92 150.872C1838.76 171.111 1847.67 198.21 1847.67 232.169V382.928H1777.18V244.003C1777.18 225.137 1773.24 210.558 1765.35 200.268C1757.46 189.634 1746.31 184.317 1731.9 184.317C1714.75 184.317 1700.86 190.492 1690.23 202.84C1679.94 215.189 1674.79 233.37 1674.79 257.381V382.928H1604.3Z" fill="#1D1D1B"/>
</svg>
